<svg xmlns="http://www.w3.org/2000/svg" viewBox="0 0 800 210" role="img" aria-label="Munich Maersk container ship">
<rect width="800" height="210" fill="#0e1830"/>
<rect y="150" width="800" height="60" fill="#13233f"/>
<line x1="0" y1="158" x2="800" y2="158" stroke="#274063" stroke-width="2" opacity="0.5"/>
<line x1="0" y1="170" x2="800" y2="170" stroke="#274063" stroke-width="2" opacity="0.35"/>
<line x1="0" y1="184" x2="800" y2="184" stroke="#274063" stroke-width="2" opacity="0.25"/>
<rect x="92" y="101" width="26" height="14" rx="1.5" fill="#f59e0b" opacity="0.95"/>
<rect x="92" y="84" width="26" height="14" rx="1.5" fill="#3b82f6" opacity="0.95"/>
<rect x="92" y="67" width="26" height="14" rx="1.5" fill="#0ea5e9" opacity="0.95"/>
<rect x="121" y="101" width="26" height="14" rx="1.5" fill="#14b8a6" opacity="0.95"/>
<rect x="121" y="84" width="26" height="14" rx="1.5" fill="#e2e8f0" opacity="0.95"/>
<rect x="150" y="101" width="26" height="14" rx="1.5" fill="#0ea5e9" opacity="0.95"/>
<rect x="150" y="84" width="26" height="14" rx="1.5" fill="#22c55e" opacity="0.95"/>
<rect x="150" y="67" width="26" height="14" rx="1.5" fill="#0ea5e9" opacity="0.95"/>
<rect x="150" y="50" width="26" height="14" rx="1.5" fill="#14b8a6" opacity="0.95"/>
<rect x="179" y="101" width="26" height="14" rx="1.5" fill="#3b82f6" opacity="0.95"/>
<rect x="179" y="84" width="26" height="14" rx="1.5" fill="#14b8a6" opacity="0.95"/>
<rect x="179" y="67" width="26" height="14" rx="1.5" fill="#22c55e" opacity="0.95"/>
<rect x="208" y="101" width="26" height="14" rx="1.5" fill="#3b82f6" opacity="0.95"/>
<rect x="208" y="84" width="26" height="14" rx="1.5" fill="#0ea5e9" opacity="0.95"/>
<rect x="237" y="101" width="26" height="14" rx="1.5" fill="#14b8a6" opacity="0.95"/>
<rect x="237" y="84" width="26" height="14" rx="1.5" fill="#22c55e" opacity="0.95"/>
<rect x="237" y="67" width="26" height="14" rx="1.5" fill="#0ea5e9" opacity="0.95"/>
<rect x="237" y="50" width="26" height="14" rx="1.5" fill="#3b82f6" opacity="0.95"/>
<rect x="237" y="33" width="26" height="14" rx="1.5" fill="#0ea5e9" opacity="0.95"/>
<rect x="266" y="101" width="26" height="14" rx="1.5" fill="#0ea5e9" opacity="0.95"/>
<rect x="266" y="84" width="26" height="14" rx="1.5" fill="#f59e0b" opacity="0.95"/>
<rect x="295" y="101" width="26" height="14" rx="1.5" fill="#3b82f6" opacity="0.95"/>
<rect x="295" y="84" width="26" height="14" rx="1.5" fill="#f59e0b" opacity="0.95"/>
<rect x="295" y="67" width="26" height="14" rx="1.5" fill="#14b8a6" opacity="0.95"/>
<rect x="324" y="101" width="26" height="14" rx="1.5" fill="#ef4444" opacity="0.95"/>
<rect x="324" y="84" width="26" height="14" rx="1.5" fill="#f59e0b" opacity="0.95"/>
<rect x="324" y="67" width="26" height="14" rx="1.5" fill="#14b8a6" opacity="0.95"/>
<rect x="324" y="50" width="26" height="14" rx="1.5" fill="#22c55e" opacity="0.95"/>
<rect x="353" y="101" width="26" height="14" rx="1.5" fill="#14b8a6" opacity="0.95"/>
<rect x="353" y="84" width="26" height="14" rx="1.5" fill="#14b8a6" opacity="0.95"/>
<rect x="353" y="67" width="26" height="14" rx="1.5" fill="#0ea5e9" opacity="0.95"/>
<rect x="382" y="101" width="26" height="14" rx="1.5" fill="#22c55e" opacity="0.95"/>
<rect x="382" y="84" width="26" height="14" rx="1.5" fill="#a855f7" opacity="0.95"/>
<rect x="382" y="67" width="26" height="14" rx="1.5" fill="#3b82f6" opacity="0.95"/>
<rect x="382" y="50" width="26" height="14" rx="1.5" fill="#e2e8f0" opacity="0.95"/>
<rect x="411" y="101" width="26" height="14" rx="1.5" fill="#a855f7" opacity="0.95"/>
<rect x="411" y="84" width="26" height="14" rx="1.5" fill="#e2e8f0" opacity="0.95"/>
<rect x="411" y="67" width="26" height="14" rx="1.5" fill="#ef4444" opacity="0.95"/>
<rect x="440" y="101" width="26" height="14" rx="1.5" fill="#f59e0b" opacity="0.95"/>
<rect x="440" y="84" width="26" height="14" rx="1.5" fill="#22c55e" opacity="0.95"/>
<rect x="469" y="101" width="26" height="14" rx="1.5" fill="#ef4444" opacity="0.95"/>
<rect x="469" y="84" width="26" height="14" rx="1.5" fill="#a855f7" opacity="0.95"/>
<rect x="498" y="101" width="26" height="14" rx="1.5" fill="#a855f7" opacity="0.95"/>
<rect x="498" y="84" width="26" height="14" rx="1.5" fill="#ef4444" opacity="0.95"/>
<rect x="498" y="67" width="26" height="14" rx="1.5" fill="#14b8a6" opacity="0.95"/>
<rect x="527" y="101" width="26" height="14" rx="1.5" fill="#3b82f6" opacity="0.95"/>
<rect x="527" y="84" width="26" height="14" rx="1.5" fill="#f59e0b" opacity="0.95"/>
<rect x="556" y="101" width="26" height="14" rx="1.5" fill="#e2e8f0" opacity="0.95"/>
<rect x="556" y="84" width="26" height="14" rx="1.5" fill="#f59e0b" opacity="0.95"/>
<rect x="556" y="67" width="26" height="14" rx="1.5" fill="#a855f7" opacity="0.95"/>
<rect x="556" y="50" width="26" height="14" rx="1.5" fill="#3b82f6" opacity="0.95"/>
<rect x="556" y="33" width="26" height="14" rx="1.5" fill="#0ea5e9" opacity="0.95"/>
<rect x="585" y="101" width="26" height="14" rx="1.5" fill="#14b8a6" opacity="0.95"/>
<rect x="585" y="84" width="26" height="14" rx="1.5" fill="#e2e8f0" opacity="0.95"/>
<rect x="585" y="67" width="26" height="14" rx="1.5" fill="#e2e8f0" opacity="0.95"/>
<rect x="585" y="50" width="26" height="14" rx="1.5" fill="#e2e8f0" opacity="0.95"/>
<path d="M70 120 L636 120 Q694 120 716 137 L726 150 Q723 159 694 159 L92 159 Q73 159 70 141 Z" fill="#69b3e2"/>
<path d="M70 150 L726 150 Q723 159 694 159 L92 159 Q73 159 70 150 Z" fill="#0b2a47"/>
<text x="118" y="142" font-family="Arial, Helvetica, sans-serif" font-size="20" font-weight="bold" fill="#0a0f1c" letter-spacing="2">MUNICH MAERSK</text>
<rect x="150" y="74" width="46" height="46" rx="3" fill="#eef3fb"/>
<rect x="156" y="80" width="34" height="9" rx="1" fill="#26456b"/>
<rect x="156" y="93" width="34" height="7" rx="1" fill="#3a5d86" opacity="0.7"/>
<rect x="170" y="56" width="7" height="20" fill="#cfdcef"/>
<rect x="556" y="84" width="34" height="36" rx="3" fill="#eef3fb"/>
<rect x="556" y="92" width="34" height="12" fill="#69b3e2"/>
<polygon points="573.0,89.0 574.6,94.6 580.0,92.4 576.7,97.2 581.8,100.0 576.0,100.4 576.9,106.1 573.0,101.8 569.1,106.1 570.0,100.4 564.2,100.0 569.3,97.2 566.0,92.4 571.4,94.6" fill="#ffffff"/>
</svg>